<mxfile host="app.diagrams.net" modified="2023-11-09T21:26:22.763Z" agent="Mozilla/5.0 (Windows NT 10.0; Win64; x64; rv:109.0) Gecko/20100101 Firefox/119.0" etag="2mTIdojJMpH9zf2C_lgj" version="22.1.0" type="device">
  <diagram name="Seite-1" id="qcbTbs-L1ypILn_qXZYH">
    <mxGraphModel dx="1044" dy="643" grid="1" gridSize="10" guides="1" tooltips="1" connect="1" arrows="1" fold="1" page="1" pageScale="1" pageWidth="827" pageHeight="1169" math="0" shadow="0">
      <root>
        <mxCell id="0" />
        <mxCell id="1" parent="0" />
        <mxCell id="RZxln3Fw05Es_QmUwBm_-5" value="" style="ellipse;shape=cloud;whiteSpace=wrap;html=1;rotation=90;" parent="1" vertex="1">
          <mxGeometry x="202.34" y="-24.98" width="378.99" height="620.61" as="geometry" />
        </mxCell>
        <mxCell id="RZxln3Fw05Es_QmUwBm_-4" value="" style="ellipse;shape=cloud;whiteSpace=wrap;html=1;fontSize=16;" parent="1" vertex="1">
          <mxGeometry x="228" y="155" width="300" height="260" as="geometry" />
        </mxCell>
        <mxCell id="RZxln3Fw05Es_QmUwBm_-1" value="&lt;div style=&quot;font-size: 16px;&quot;&gt;Produkt-&lt;/div&gt;&lt;div style=&quot;font-size: 16px;&quot;&gt;umfang&lt;br style=&quot;font-size: 16px;&quot;&gt;&lt;/div&gt;" style="ellipse;whiteSpace=wrap;html=1;fontSize=16;" parent="1" vertex="1">
          <mxGeometry x="350" y="265" width="120" height="80" as="geometry" />
        </mxCell>
        <mxCell id="RZxln3Fw05Es_QmUwBm_-3" style="rounded=0;orthogonalLoop=1;jettySize=auto;html=1;endArrow=open;endFill=0;fontSize=16;fontColor=#006666;strokeColor=#006666;" parent="1" source="RZxln3Fw05Es_QmUwBm_-2" target="RZxln3Fw05Es_QmUwBm_-1" edge="1">
          <mxGeometry relative="1" as="geometry">
            <mxPoint x="368" y="333" as="targetPoint" />
          </mxGeometry>
        </mxCell>
        <mxCell id="RZxln3Fw05Es_QmUwBm_-2" value="Systemgrenze" style="text;html=1;strokeColor=none;fillColor=none;align=center;verticalAlign=middle;whiteSpace=wrap;rounded=0;fontSize=16;fontColor=#006666;" parent="1" vertex="1">
          <mxGeometry x="90" y="410" width="100" height="30" as="geometry" />
        </mxCell>
        <mxCell id="RZxln3Fw05Es_QmUwBm_-6" value="&lt;div style=&quot;font-size: 16px;&quot;&gt;Aufgabenbereich von Elementen im Systemkontext&lt;/div&gt;" style="text;html=1;strokeColor=none;fillColor=none;align=center;verticalAlign=middle;whiteSpace=wrap;rounded=0;fontSize=16;rotation=349;" parent="1" vertex="1">
          <mxGeometry x="280" y="213" width="137.3" height="60" as="geometry" />
        </mxCell>
        <mxCell id="RZxln3Fw05Es_QmUwBm_-7" value="Irrelevante Aufgaben" style="text;html=1;strokeColor=none;fillColor=none;align=center;verticalAlign=middle;whiteSpace=wrap;rounded=0;fontSize=16;rotation=14;" parent="1" vertex="1">
          <mxGeometry x="520" y="234" width="110" height="50" as="geometry" />
        </mxCell>
        <mxCell id="RZxln3Fw05Es_QmUwBm_-8" value="Kontextgrenze" style="text;html=1;strokeColor=none;fillColor=none;align=center;verticalAlign=middle;whiteSpace=wrap;rounded=0;fontSize=16;fontColor=#006666;" parent="1" vertex="1">
          <mxGeometry x="570" y="440" width="120" height="30" as="geometry" />
        </mxCell>
        <mxCell id="RZxln3Fw05Es_QmUwBm_-10" style="rounded=0;orthogonalLoop=1;jettySize=auto;html=1;endArrow=open;endFill=0;fontSize=16;entryX=0.929;entryY=0.751;entryDx=0;entryDy=0;entryPerimeter=0;fontColor=#006666;strokeColor=#006666;" parent="1" source="RZxln3Fw05Es_QmUwBm_-8" target="RZxln3Fw05Es_QmUwBm_-4" edge="1">
          <mxGeometry relative="1" as="geometry">
            <mxPoint x="254" y="480" as="sourcePoint" />
            <mxPoint x="490" y="500" as="targetPoint" />
          </mxGeometry>
        </mxCell>
        <mxCell id="RZxln3Fw05Es_QmUwBm_-11" value="Irrelevante Umgebung" style="text;html=1;strokeColor=none;fillColor=none;align=center;verticalAlign=middle;whiteSpace=wrap;rounded=0;fontSize=16;rotation=346;fontColor=default;" parent="1" vertex="1">
          <mxGeometry x="134" y="265" width="110" height="50" as="geometry" />
        </mxCell>
        <mxCell id="RZxln3Fw05Es_QmUwBm_-12" value="Systemkontext" style="text;html=1;strokeColor=none;fillColor=none;align=center;verticalAlign=middle;whiteSpace=wrap;rounded=0;fontSize=16;rotation=8;" parent="1" vertex="1">
          <mxGeometry x="360" y="209" width="110" height="50" as="geometry" />
        </mxCell>
        <mxCell id="RZxln3Fw05Es_QmUwBm_-15" value="System" style="text;html=1;strokeColor=none;fillColor=none;align=center;verticalAlign=middle;whiteSpace=wrap;rounded=0;fontSize=16;" parent="1" vertex="1">
          <mxGeometry x="380" y="290" width="60" height="30" as="geometry" />
        </mxCell>
      </root>
    </mxGraphModel>
  </diagram>
</mxfile>
